<svg width="1024" height="1024" viewBox="0 0 1024 1024" fill="none" xmlns="http://www.w3.org/2000/svg">
  <defs>
    <linearGradient id="bg" x1="128" y1="96" x2="928" y2="928" gradientUnits="userSpaceOnUse">
      <stop offset="0" stop-color="#103A5E"/>
      <stop offset="0.55" stop-color="#0A7B83"/>
      <stop offset="1" stop-color="#9AE66E"/>
    </linearGradient>
    <radialGradient id="glow" cx="0" cy="0" r="1" gradientUnits="userSpaceOnUse" gradientTransform="translate(736 256) rotate(122) scale(620)">
      <stop stop-color="#D7FF8A" stop-opacity="0.9"/>
      <stop offset="1" stop-color="#D7FF8A" stop-opacity="0"/>
    </radialGradient>
    <filter id="soft" x="0" y="0" width="1024" height="1024" filterUnits="userSpaceOnUse" color-interpolation-filters="sRGB">
      <feGaussianBlur stdDeviation="14"/>
    </filter>
  </defs>

  <rect x="72" y="72" width="880" height="880" rx="220" fill="url(#bg)"/>
  <rect x="72" y="72" width="880" height="880" rx="220" fill="url(#glow)"/>

  <g filter="url(#soft)" opacity="0.5">
    <circle cx="512" cy="512" r="260" stroke="#D4FFF2" stroke-width="18"/>
    <circle cx="512" cy="512" r="198" stroke="#C4FFE6" stroke-width="12"/>
  </g>

  <circle cx="512" cy="512" r="262" stroke="#E6FFF8" stroke-width="14" opacity="0.9"/>
  <path d="M645 372C610 334 565 316 512 316C409 316 326 399 326 502C326 605 409 688 512 688C602 688 676 624 694 539"
    stroke="#ECFFF4" stroke-width="52" stroke-linecap="round"/>

  <circle cx="704" cy="502" r="62" fill="#F6FFE8"/>
  <circle cx="704" cy="502" r="22" fill="#0A7B83"/>

  <path d="M420 706L585 706" stroke="#ECFFF4" stroke-width="56" stroke-linecap="round"/>
  <path d="M502 625L502 788" stroke="#ECFFF4" stroke-width="56" stroke-linecap="round"/>
</svg>
